#!OML:ASF F:\VICON\USERDATA\INSTALL\rory3\rory3.ASF
:FULLY-SPECIFIED
:DEGREES
39
root 0.45514013966825456 18.013358002023015 20.74197120371968 -2.5275172747635346 -3.8174874976118014 -6.574844173722054
lfemur -11.25521991213285 0.643452536421425 -10.101210254208402
ltibia 60.839642624345444
lfoot -6.67928583670275 0.678158837276656
ltoes -9.300737464420829
rfemur -10.145803845557873 6.568772626365721 31.405112703237613
rtibia 25.24771129191408
rfoot -14.897431947852096 -9.566528980850668
rtoes -2.967593673368238
lowerback 1.0 0.917138550578356 5.184450222558625
upperback 0.34807121352218157 2.021201300769823 3.2108624578725333
thorax -5.196114283017927 0.9957847309683734 0.9751615542601954
lowerneck -17.426843173655158 -2.825430290383397 -1.2810522416103995
upperneck 21.403575753553593 -3.580663002344573 0.5925434153385819
head 9.64900202735094 -1.744774001312734 0.058784950862775256
lclavicle -1.0909087975228638e-15 -4.2170226068848424e-16
lhumerus -26.390316763521508 -3.867651728408597 84.16242098872871
lradius 21.03809195785218
lwrist 6.988763418162569
lhand -27.254135380349418 23.18505612747271
lfingers nan
lthumb -0.8799814136808584 52.76548699494858
rclavicle -1.2023135880767584e-15 -5.077796409465029e-16
rhumerus -29.057753980769974 -24.423773809746777 -76.14299066187286
rradius 25.939946216936473
rwrist 5.4229606583663506
rhand -17.692612778268956 1.0
rfingers nan
rthumb 9.057590036124743 -7.0095219221096885
40
root 0.48875539160730525 17.980637835904396 22.243345851694073 -3.0965766743575185 -2.7863137094270534 -6.218210522066162
lfemur -15.144048225669053 0.5029506936482915 -10.992609347415433
ltibia 62.072943532846935
lfoot -7.684856833723162 0.2445455775024643
ltoes -8.712601435835161
rfemur -6.73415402645488 5.861012565680527 31.02974223117088
rtibia 26.7553339875196
rfoot -15.280843154255438 -10.727808679391227
rtoes -3.245273663275221
lowerback 1.0 1.1671273028334288 5.321086655898082
upperback 0.425839716423337 2.3477136682984048 3.108894761061801
thorax -5.114138399368968 1.1432333141821984 0.4121090992368394
lowerneck -17.41447597918234 -2.8894965963412997 -1.205296929787751
upperneck 21.250733261880292 -3.677886829785757 0.6385551724959126
head 9.605765400844174 -1.7863462481924182 0.038251808655240666
lclavicle -1.0798999016467015e-15 -4.136884269720574e-16
lhumerus -27.5043364266381 -2.733452630205984 84.42487767826829
lradius 20.37635661304034
lwrist 7.1438501424230045
lhand -27.247450488881295 23.21350152827533
lfingers nan
lthumb -0.9142175701128885 52.68944786687533
rclavicle -1.1929569606006226e-15 -5.050393945547849e-16
rhumerus -27.885957248521734 -22.598880032755307 -76.39528753137392
rradius 26.230910197422887
rwrist 6.959952076007709
rhand -17.72938969587911 1.0
rfingers nan
rthumb 9.021441675897632 -7.085946389157813
41
root 0.5280520179628739 17.945644260008734 24.620401722063356 -3.3801114240712793 -1.5599337501468913 -6.473773631249843
lfemur -20.167003401680116 -0.31755072505459214 -11.679498591187034
ltibia 61.58715505255329
lfoot -8.812836421515945 2.991204525602966
ltoes -8.650677700943348
rfemur -3.578780065369582 5.284453484583116 30.877495169103923
rtibia 27.654808916919674
rfoot -14.527243999042817 -11.271940670806853
rtoes -1.8979477719731164
lowerback 1.0 1.3375442432403566 5.796369825747558
upperback 0.41294634573410516 2.782583729079748 2.9353396103492555
thorax -5.134242004366277 1.3541307199821313 -0.029445229906170822
lowerneck -17.38519027155013 -2.957157322181057 -1.1500447623006247
upperneck 21.042632250398757 -3.7765521533067576 0.6976537454540273
head 9.513615918858605 -1.8290657886657606 0.03449471546696353
lclavicle -1.078081633437054e-15 -4.149973461689437e-16
lhumerus -28.98195119035711 -1.6760285090661189 84.71688717311356
lradius 20.368529206248773
lwrist 7.185816923997146
lhand -27.143875118842963 23.298181833652777
lfingers nan
lthumb -0.8529465398208135 52.63852537719108
rclavicle -1.1654604240921472e-15 -4.895112411864767e-16
rhumerus -26.92003199564677 -20.871516396326047 -76.52159162779698
rradius 26.710991725494598
rwrist 6.406145900580186
rhand -17.713994590429337 1.0
rfingers nan
rthumb 8.983941977267564 -7.3786445220265975
42
root 0.5237326713647663 17.905007224006226 25.863499325958145 -3.6635168877955415 -0.9732274777055501 -6.492443505491206
lfemur -22.704016947724064 -0.8508865261429086 -12.51848327661688
ltibia 58.594329062305434
lfoot -9.258751467175735 3.9197903362210056
ltoes -8.786198701643787
rfemur -1.0567581539624769 5.066656484710934 30.649704796198854
rtibia 28.05519357150623
rfoot -12.608825281001717 -11.221007297106105
rtoes -0.22648342997946802
lowerback 1.0 1.5312553137303757 5.927198935100169
upperback 0.42977326817712125 3.0174251635374727 2.6091339137119633
thorax -5.073183853745444 1.468011591077006 -0.3560340617645039
lowerneck -17.312088319679415 -3.0160665876770882 -1.1159527187766272
upperneck 20.920256470401362 -3.865400912512487 0.7150025902217827
head 9.447280002435942 -1.8682400043733103 0.01438766777494005
lclavicle -1.0777089895623586e-15 -4.168220530421509e-16
lhumerus -30.624375315031322 -0.7446973604810703 84.9859863921496
lradius 20.723076780121495
lwrist 7.312441821269287
lhand -27.09307659424905 23.314078515517124
lfingers nan
lthumb -0.8035858272181882 52.63806439730891
rclavicle -1.14544774299214e-15 -4.783927149734229e-16
rhumerus -26.194632773740835 -19.414469526536244 -76.51741566819742
rradius 27.334784706123493
rwrist 5.771065486340119
rhand -17.679311945715522 1.0
rfingers nan
rthumb 8.977589645227194 -7.683397305647901
43
root 0.5238277767680342 17.871111464474964 27.18703299258248 -3.8821098281007966 -0.5919397111966882 -6.2803027806431935
lfemur -23.86851533296865 -1.1460094917116292 -13.087057463550376
ltibia 53.46872931428834
lfoot -9.14467611011609 5.374980179150726
ltoes -9.250532524333993
rfemur 0.29472368989019593 5.037461889020098 30.221181953840965
rtibia 28.831369923395712
rfoot -9.54223018430952 -10.401356326624757
rtoes 1.1871921802550802
lowerback 1.0 1.6351517658657393 5.810234660403472
upperback 0.45986632485207624 3.077968994545861 2.2208758250072616
thorax -4.986472097553054 1.4625138078149362 -0.6573691957982035
lowerneck -17.19250365675707 -3.073310141631553 -1.1219204569666414
upperneck 20.842229173445254 -3.9537212665910313 0.7239112613529755
head 9.400589328682788 -1.9035220011235674 -0.006300091169022942
lclavicle -1.0793088866109934e-15 -4.1960528447346447e-16
lhumerus -32.26612357312199 0.11361349310383972 85.15656975082307
lradius 21.289316701914963
lwrist 7.448214547539843
lhand -27.018129690484663 23.380534783512953
lfingers nan
lthumb -0.756977552244379 52.70662707861641
rclavicle -1.1362118561399693e-15 -4.745068964205687e-16
rhumerus -25.686476135865128 -18.11348662663298 -76.46645181439231
rradius 27.996034901064537
rwrist 4.357442708421101
rhand -17.623844428586704 1.0
rfingers nan
rthumb 8.956308506356336 -7.852586544608334
44
root 0.5143599210405008 17.843313544354103 27.94771513342124 -4.001273833005026 -0.3658930653556123 -6.582060858267209
lfemur -24.478112566778336 -1.3364335184673672 -13.162095422525933
ltibia 47.38504411150774
lfoot -9.012604940466776 4.84200313056854
ltoes -9.945700853562354
rfemur 1.0400726703878025 5.270272115965125 30.48593834336786
rtibia 30.179464063058887
rfoot -5.995107019987835 -9.461009464605613
rtoes 2.7227244544399163
lowerback 1.0 1.7533868895464968 5.938900240940578
upperback 0.49144826291681787 3.251441828988991 2.089269055491724
thorax -4.9050626109374935 1.546280767320287 -0.852833589068736
lowerneck -17.077573063028577 -3.1356737034582483 -1.2096125880718294
upperneck 20.88664415940538 -4.043113283724775 0.7408274170693123
head 9.435472133649968 -1.9348533674470128 -0.027191636413488207
lclavicle -1.0786051635332099e-15 -4.202553579589847e-16
lhumerus -33.68923116725853 0.9389870506005134 85.1851686032673
lradius 21.971142791887345
lwrist 7.510101805809214
lhand -26.997742197626227 23.321345737423222
lfingers nan
lthumb -0.7436822893347095 52.708647065342205
rclavicle -1.1264355873482086e-15 -4.696774663985502e-16
rhumerus -25.382312534434547 -16.995345577078705 -76.43578772443614
rradius 28.586916075100824
rwrist 3.2647079083501285
rhand -17.538591285518713 1.0
rfingers nan
rthumb 8.971679647358318 -7.8515932141563045
45
root 0.5182805717720363 17.833679824792597 29.47079717519167 -3.813437451723261 -0.09622700614900959 -7.223562780796566
lfemur -24.68296544241081 -1.5452722592549017 -13.150805867363971
ltibia 40.80239682583932
lfoot -9.291446026819981 4.475716756081455
ltoes -10.450231520094848
rfemur 0.88074995174021 5.561144154229711 30.94932229779735
rtibia 32.128070024704016
rfoot -2.7870916894650355 -9.120695315385941
rtoes 4.343718927075477
lowerback 1.0 1.7584852071095645 6.257902266809785
upperback 0.4527065339170916 3.2958961024496674 2.0904283101893726
thorax -4.887829256397851 1.5630507404078084 -1.1508903428132835
lowerneck -16.86685694360993 -3.17700598892841 -1.2786755434055348
upperneck 20.905053713856802 -4.102187434085493 0.7778991699267821
head 9.503739665461033 -1.9545765253262632 -0.03844419204656624
lclavicle -1.0801798725294523e-15 -4.224119622280595e-16
lhumerus -34.804117820194456 1.7940442012822997 85.08380921556065
lradius 22.72204343839816
lwrist 7.573987280180823
lhand -26.989648477717846 23.36017066067333
lfingers nan
lthumb -0.7488750908718376 52.76391397650721
rclavicle -1.1180807817707798e-15 -4.65030594273066e-16
rhumerus -25.240064776241514 -15.92819911513807 -76.49210957758436
rradius 29.063639144096342
rwrist 3.4591147835016676
rhand -17.470370466830747 1.0
rfingers nan
rthumb 9.007559151718919 -7.784163948285945
46
root 0.5296343893124333 17.844343896117906 30.63815855949688 -3.5901219417277597 -0.0038978419990836066 -7.960646294939787
lfemur -24.091131424725265 -1.7284589429617618 -13.263378206944042
ltibia 34.47715791156466
lfoot -8.37785101275768 4.519767418308218
ltoes -11.98204952940924
rfemur 0.6328614583630952 5.800363810417902 31.583152321759204
rtibia 34.66866558386418
rfoot -0.7205037217790027 -9.719874720623213
rtoes 6.069322159365019
lowerback 1.0 1.908690805613157 6.758276554703153
upperback 0.40759305728960493 3.5656588301021257 2.115764115390041
thorax -4.871156098339413 1.6728102415429293 -1.438131724218053
lowerneck -16.764157250947964 -3.2313027694716516 -1.3576480978467793
upperneck 20.9483833502073 -4.181697112509407 0.8202202068119627
head 9.546124428855721 -1.9826939576742948 -0.04014650735895112
lclavicle -1.0865139852573006e-15 -4.2856556739133923e-16
lhumerus -35.608759441666486 2.612793002831705 84.88971163951314
lradius 23.47408366665684
lwrist 7.667321809828283
lhand -27.118309705890653 23.17356267459835
lfingers nan
lthumb -0.8249384825352791 52.715981238919596
rclavicle -1.1051172113536305e-15 -4.573620296342951e-16
rhumerus -25.20457306144276 -14.850622344176326 -76.68050394351388
rradius 29.394030841285485
rwrist 3.818803595789104
rhand -17.441833607988183 1.0
rfingers nan
rthumb 9.005567519794234 -7.6350313102242255
